<svg xmlns="http://www.w3.org/2000/svg" width="1600" height="1100" viewBox="0 0 1600 1100" role="img" aria-labelledby="title desc">
  <title id="title">packages/core/src 模块地图</title>
  <desc id="desc">按职责聚类展示 packages/core/src 下的主要目录和跨模块依赖关系。</desc>
  <defs>
    <marker id="arrow" markerWidth="12" markerHeight="12" refX="10" refY="6" orient="auto"><path d="M2,2 L10,6 L2,10 Z" fill="#334155"/></marker>
    <style>
      .bg{fill:#f8fafc}.title{font:700 34px ui-sans-serif,system-ui,-apple-system,BlinkMacSystemFont,"Segoe UI","PingFang SC","Microsoft YaHei",sans-serif;fill:#0f172a}.sub{font:400 16px ui-sans-serif,system-ui,-apple-system,BlinkMacSystemFont,"Segoe UI","PingFang SC","Microsoft YaHei",sans-serif;fill:#475569}.h{font:700 16px ui-sans-serif,system-ui,-apple-system,BlinkMacSystemFont,"Segoe UI","PingFang SC","Microsoft YaHei",sans-serif;fill:#0f172a}.t{font:500 13px ui-sans-serif,system-ui,-apple-system,BlinkMacSystemFont,"Segoe UI","PingFang SC","Microsoft YaHei",sans-serif;fill:#334155}.s{font:400 12px ui-sans-serif,system-ui,-apple-system,BlinkMacSystemFont,"Segoe UI","PingFang SC","Microsoft YaHei",sans-serif;fill:#64748b}.box{stroke:#cbd5e1;stroke-width:1.5;rx:8}.blue{fill:#dbeafe;stroke:#60a5fa}.purple{fill:#ede9fe;stroke:#a78bfa}.green{fill:#dcfce7;stroke:#4ade80}.orange{fill:#ffedd5;stroke:#fb923c}.gray{fill:#f1f5f9;stroke:#94a3b8}.warn{fill:#fef3c7;stroke:#f59e0b}.group{fill:#ffffff;stroke:#e2e8f0;stroke-width:1.5;rx:8}.line{fill:none;stroke:#334155;stroke-width:2;marker-end:url(#arrow)}.dash{fill:none;stroke:#64748b;stroke-width:2;stroke-dasharray:7 6;marker-end:url(#arrow)}
    </style>
  </defs>
  <rect class="bg" width="1600" height="1100"/>
  <text class="title" x="56" y="58">packages/core/src 模块地图</text>
  <text class="sub" x="56" y="88">按职责聚类：入口与宿主 seam、Agent 循环、工具扩展、模型数据、长任务编排、工作区集成和横切基础设施。</text>

  <rect class="group" x="60" y="130" width="450" height="240"/>
  <text class="h" x="86" y="162">入口 / host seam / runtime</text>
  <rect class="box blue" x="100" y="196" width="120" height="34"/><text class="t" x="137" y="218">index.ts</text>
  <rect class="box blue" x="250" y="196" width="120" height="34"/><text class="t" x="290" y="218">cli/</text>
  <rect class="box purple" x="100" y="246" width="120" height="34"/><text class="t" x="130" y="268">protocol/</text>
  <rect class="box purple" x="250" y="246" width="120" height="34"/><text class="t" x="286" y="268">remote/</text>
  <rect class="box green" x="100" y="296" width="120" height="34"/><text class="t" x="130" y="318">runtime/</text>
  <rect class="box green" x="250" y="296" width="120" height="34"/><text class="t" x="288" y="318">state.ts</text>

  <rect class="group" x="575" y="130" width="450" height="240"/>
  <text class="h" x="601" y="162">Agent loop / 会话 / 上下文</text>
  <rect class="box green" x="615" y="196" width="120" height="34"/><text class="t" x="648" y="218">engine/</text>
  <rect class="box green" x="765" y="196" width="120" height="34"/><text class="t" x="794" y="218">context/</text>
  <rect class="box orange" x="615" y="246" width="120" height="34"/><text class="t" x="646" y="268">session/</text>
  <rect class="box orange" x="765" y="246" width="120" height="34"/><text class="t" x="796" y="268">prompt/</text>
  <rect class="box blue" x="615" y="296" width="120" height="34"/><text class="t" x="652" y="318">preset/</text>
  <rect class="box gray" x="765" y="296" width="120" height="34"/><text class="t" x="798" y="318">types.ts</text>

  <rect class="group" x="1090" y="130" width="450" height="240"/>
  <text class="h" x="1116" y="162">模型 / catalog / 成本</text>
  <rect class="box green" x="1130" y="196" width="120" height="34"/><text class="t" x="1166" y="218">llm/</text>
  <rect class="box orange" x="1280" y="196" width="140" height="34"/><text class="t" x="1308" y="218">model-catalog/</text>
  <rect class="box orange" x="1130" y="246" width="120" height="34"/><text class="t" x="1168" y="268">data/</text>
  <rect class="box gray" x="1280" y="246" width="140" height="34"/><text class="t" x="1310" y="268">cost-tracker.ts</text>
  <rect class="box gray" x="1130" y="296" width="120" height="34"/><text class="t" x="1162" y="318">logging/</text>
  <rect class="box gray" x="1280" y="296" width="140" height="34"/><text class="t" x="1312" y="318">exceptions.ts</text>

  <rect class="group" x="60" y="430" width="450" height="270"/>
  <text class="h" x="86" y="462">工具 / 扩展 / 能力控制</text>
  <rect class="box green" x="100" y="496" width="140" height="34"/><text class="t" x="132" y="518">tool-system/</text>
  <rect class="box purple" x="270" y="496" width="140" height="34"/><text class="t" x="306" y="518">plugins/</text>
  <rect class="box purple" x="100" y="546" width="140" height="34"/><text class="t" x="135" y="568">hooks/</text>
  <rect class="box purple" x="270" y="546" width="140" height="34"/><text class="t" x="308" y="568">skills/</text>
  <rect class="box blue" x="100" y="596" width="140" height="34"/><text class="t" x="134" y="618">credentials/</text>
  <rect class="box orange" x="270" y="596" width="140" height="34"/><text class="t" x="286" y="618">capability-control/</text>
  <rect class="box blue" x="100" y="646" width="140" height="34"/><text class="t" x="142" y="668">agent/</text>
  <rect class="box blue" x="270" y="646" width="140" height="34"/><text class="t" x="288" y="668">external-agents/</text>

  <rect class="group" x="575" y="430" width="450" height="270"/>
  <text class="h" x="601" y="462">长任务 / 自动化 / 服务</text>
  <rect class="box green" x="615" y="496" width="120" height="34"/><text class="t" x="654" y="518">run/</text>
  <rect class="box green" x="765" y="496" width="120" height="34"/><text class="t" x="788" y="518">automation/</text>
  <rect class="box orange" x="615" y="546" width="120" height="34"/><text class="t" x="655" y="568">cron/</text>
  <rect class="box purple" x="765" y="546" width="120" height="34"/><text class="t" x="800" y="568">services/</text>
  <rect class="box purple" x="615" y="596" width="120" height="34"/><text class="t" x="650" y="618">arena/</text>
  <rect class="box purple" x="765" y="596" width="150" height="34"/><text class="t" x="790" y="618">cc-orchestrator/</text>
  <rect class="box gray" x="615" y="646" width="120" height="34"/><text class="t" x="650" y="668">review/</text>
  <rect class="box gray" x="765" y="646" width="120" height="34"/><text class="t" x="805" y="668">stt/</text>

  <rect class="group" x="1090" y="430" width="450" height="270"/>
  <text class="h" x="1116" y="462">设置 / 产品 / 工作区集成 / 基础设施</text>
  <rect class="box blue" x="1130" y="496" width="120" height="34"/><text class="t" x="1160" y="518">settings/</text>
  <rect class="box blue" x="1280" y="496" width="120" height="34"/><text class="t" x="1310" y="518">product/</text>
  <rect class="box orange" x="1130" y="546" width="120" height="34"/><text class="t" x="1165" y="568">git/</text>
  <rect class="box orange" x="1280" y="546" width="120" height="34"/><text class="t" x="1318" y="568">lsp/</text>
  <rect class="box gray" x="1130" y="596" width="120" height="34"/><text class="t" x="1160" y="618">utils/</text>
  <rect class="box gray" x="1280" y="596" width="120" height="34"/><text class="t" x="1308" y="618">updater.ts</text>
  <rect class="box blue" x="1130" y="646" width="120" height="34"/><text class="t" x="1156" y="668">onboarding.ts</text>
  <rect class="box gray" x="1280" y="646" width="120" height="34"/><text class="t" x="1304" y="668">colorizer.ts</text>

  <rect class="group" x="60" y="760" width="1480" height="220"/>
  <text class="h" x="86" y="792">主要数据流与依赖方向</text>
  <rect class="box blue" x="130" y="836" width="190" height="48"/><text class="h" x="188" y="858">Hosts</text><text class="s" x="160" y="876">cli / protocol / remote</text>
  <rect class="box green" x="390" y="836" width="190" height="48"/><text class="h" x="438" y="858">Engine core</text><text class="s" x="420" y="876">engine / context / session</text>
  <rect class="box orange" x="650" y="836" width="190" height="48"/><text class="h" x="700" y="858">Tool plane</text><text class="s" x="680" y="876">tool-system / hooks / skills</text>
  <rect class="box green" x="910" y="836" width="190" height="48"/><text class="h" x="960" y="858">Model plane</text><text class="s" x="940" y="876">llm / catalog / data</text>
  <rect class="box purple" x="1170" y="836" width="210" height="48"/><text class="h" x="1220" y="858">Long-running</text><text class="s" x="1200" y="876">run / automation / arena</text>
  <path class="line" d="M320 860 L390 860"/><path class="line" d="M580 860 L650 860"/><path class="line" d="M840 860 L910 860"/><path class="dash" d="M1170 860 C1085 785 925 708 825 630"/>
  <path class="dash" d="M1005 836 C1040 705 1110 600 1190 530"/>
  <path class="dash" d="M745 836 C650 730 480 665 340 613"/>

  <rect class="box gray" x="88" y="1030" width="1424" height="40"/>
  <text class="s" x="112" y="1055">读图方式：每个框对应 packages/core/src 下目录或关键顶层文件；测试文件未单列。箭头表示主要调用或数据流，不表示唯一依赖路径。</text>
</svg>
